<?xml version="1.0" encoding="UTF-8"?>
<!DOCTYPE svg PUBLIC "-//W3C//DTD SVG 1.1//EN" "http://www.w3.org/Graphics/SVG/1.1/DTD/svg11.dtd">
<!-- Creator: CorelDRAW -->
<svg xmlns="http://www.w3.org/2000/svg" xml:space="preserve" width="1269px" height="216px" version="1.1" style="shape-rendering:geometricPrecision; text-rendering:geometricPrecision; image-rendering:optimizeQuality; fill-rule:evenodd; clip-rule:evenodd"
viewBox="0 0 1269 215.826"
 xmlns:xlink="http://www.w3.org/1999/xlink"
 xmlns:xodm="http://www.corel.com/coreldraw/odm/2003">
 <defs>
  <style type="text/css">
   <![CDATA[
    .fil0 {fill:black;fill-rule:nonzero}
    .fil1 {fill:#FFBB45;fill-rule:nonzero}
   ]]>
  </style>
 </defs>
 <g id="Camada_x0020_1">
  <metadata id="CorelCorpID_0Corel-Layer"/>
  <g id="_2552726837472">
   <path class="fil0" d="M435.423 174.328l0 -154.967 56.112 0c16.22,0 29.846,3.178 40.879,9.535 11.032,6.356 19.362,15.343 24.987,26.96 5.626,11.617 8.439,25.316 8.439,41.098 0,15.781 -2.776,29.444 -8.329,40.988 -5.553,11.544 -13.845,20.494 -24.878,26.851 -11.032,6.357 -24.659,9.535 -40.879,9.535l-56.331 0zm23.234 -21.262l32.001 0c11.983,0 21.773,-2.374 29.372,-7.123 7.598,-4.749 13.224,-11.325 16.877,-19.727 3.653,-8.403 5.48,-18.156 5.48,-29.262 0,-10.814 -1.79,-20.458 -5.37,-28.933 -3.58,-8.475 -9.133,-15.161 -16.659,-20.056 -7.525,-4.895 -17.206,-7.343 -29.042,-7.343l-32.659 0 0 112.444z"/>
   <path id="_1" class="fil0" d="M640.364 175.643c-12.128,0 -22.284,-2.484 -30.467,-7.453 -8.183,-4.968 -14.357,-11.872 -18.521,-20.713 -4.165,-8.841 -6.247,-19.033 -6.247,-30.577 0,-11.69 2.155,-21.992 6.466,-30.906 4.311,-8.913 10.594,-15.927 18.85,-21.042 8.256,-5.114 18.229,-7.671 29.919,-7.671 8.914,0 16.659,1.643 23.235,4.931 6.575,3.288 12.018,7.708 16.329,13.261 4.311,5.553 7.489,11.727 9.535,18.522 2.046,6.795 2.923,13.845 2.63,21.152 0,1.607 -0.073,3.141 -0.219,4.603 -0.146,1.461 -0.292,2.995 -0.438,4.602l-83.511 0c0.438,5.846 1.936,11.179 4.493,16.001 2.557,4.822 6.174,8.658 10.85,11.508 4.676,2.849 10.448,4.274 17.316,4.274 3.799,0 7.489,-0.475 11.069,-1.425 3.58,-0.95 6.795,-2.484 9.644,-4.603 2.85,-2.119 4.859,-4.858 6.028,-8.219l22.796 0c-1.9,7.744 -5.298,14.137 -10.193,19.179 -4.895,5.041 -10.813,8.731 -17.754,11.069 -6.941,2.338 -14.211,3.507 -21.81,3.507zm-32.001 -69.264l61.373 0c-0.146,-5.699 -1.461,-10.777 -3.946,-15.234 -2.484,-4.456 -5.918,-7.964 -10.301,-10.521 -4.384,-2.557 -9.645,-3.836 -15.782,-3.836 -6.722,0 -12.311,1.389 -16.768,4.165 -4.457,2.776 -7.891,6.393 -10.302,10.85 -2.411,4.457 -3.836,9.315 -4.274,14.576z"/>
   <polygon id="_2" class="fil0" points="745.795,174.328 702.614,58.815 727.821,58.815 761.138,153.943 794.236,58.815 819.662,58.815 776.481,174.328 "/>
   <path id="_3" class="fil0" d="M957.97 201.288l-23.015 -30.906c-4.384,1.754 -9.133,3.142 -14.247,4.165 -5.114,1.023 -10.521,1.534 -16.22,1.534 -16.074,0 -29.627,-3.397 -40.66,-10.192 -11.032,-6.795 -19.398,-16.183 -25.097,-28.166 -5.699,-11.982 -8.548,-25.572 -8.548,-40.769 0,-15.343 2.849,-29.006 8.548,-40.989 5.699,-11.982 14.065,-21.37 25.097,-28.165 11.033,-6.795 24.586,-10.193 40.66,-10.193 16.074,0 29.59,3.361 40.55,10.083 10.959,6.722 19.289,16.074 24.988,28.056 5.698,11.983 8.548,25.645 8.548,40.989 0,13.005 -2.083,24.658 -6.247,34.96 -4.165,10.302 -10.192,19.033 -18.083,26.194l21.7 29.59 -17.974 13.809zm-53.701 -46.468c11.69,0 21.298,-2.703 28.823,-8.11 7.525,-5.407 13.042,-12.494 16.549,-21.261 3.507,-8.768 5.26,-18.339 5.26,-28.714 0,-10.375 -1.79,-19.947 -5.37,-28.714 -3.58,-8.768 -9.096,-15.818 -16.548,-21.152 -7.453,-5.334 -16.951,-8 -28.495,-8 -11.544,0 -21.079,2.703 -28.604,8.11 -7.526,5.406 -13.115,12.53 -16.769,21.371 -3.653,8.84 -5.479,18.375 -5.479,28.604 0,10.229 1.79,19.727 5.37,28.495 3.58,8.767 9.133,15.854 16.658,21.261 7.526,5.407 17.061,8.11 28.605,8.11z"/>
   <path id="_4" class="fil0" d="M1051.564 175.643c-16.22,0 -28.604,-4.274 -37.153,-12.823 -8.548,-8.548 -12.822,-21.59 -12.822,-39.125l0 -64.88 22.576 0 0 63.565c0,6.868 0.987,12.786 2.959,17.754 1.973,4.969 5.005,8.768 9.097,11.398 4.091,2.63 9.279,3.945 15.562,3.945 6.576,0 11.873,-1.351 15.891,-4.055 4.019,-2.703 6.941,-6.539 8.768,-11.507 1.826,-4.968 2.74,-10.813 2.74,-17.535l0 -63.565 22.576 0 0 64.88c0,17.827 -4.347,30.942 -13.042,39.344 -8.694,8.403 -21.078,12.604 -37.152,12.604z"/>
   <path id="_5" class="fil0" d="M1128.938 174.328l0 -115.513 22.576 0 0 115.513 -22.576 0zm11.178 -130.856c-4.384,0 -7.927,-1.352 -10.631,-4.055 -2.703,-2.704 -4.054,-6.174 -4.054,-10.412 0,-4.237 1.388,-7.708 4.164,-10.411 2.777,-2.704 6.283,-4.055 10.521,-4.055 3.946,0 7.416,1.351 10.412,4.055 2.995,2.703 4.493,6.174 4.493,10.411 0,4.238 -1.425,7.708 -4.274,10.412 -2.849,2.703 -6.393,4.055 -10.631,4.055z"/>
   <polygon id="_6" class="fil0" points="1174.967,174.328 1174.967,156.135 1240.067,78.98 1174.967,78.98 1174.967,58.815 1269,58.815 1269,76.788 1203.462,154.381 1269,154.381 1269,174.328 "/>
   <g>
    <path class="fil1" d="M241.925 87.738l-31.394 0 35.735 -75.429c-0.468,-4.103 -0.934,-8.206 -1.398,-12.309l-104.306 112.691c0.786,2.37 1.578,4.691 2.415,7.043l33.545 0 -42.72 86.329c0.501,3.255 1.003,6.509 1.506,9.763l109.032 -121.045c0,0 -2.415,-7.043 -2.415,-7.043z"/>
    <polygon class="fil1" points="117.451,193.884 0,113.252 0,102.574 117.451,21.942 117.451,44.033 23.196,107.729 117.451,171.793 "/>
    <polygon class="fil1" points="262.617,193.884 380.068,113.252 380.068,102.574 262.617,21.942 262.617,44.033 356.873,107.729 262.617,171.793 "/>
   </g>
  </g>
 </g>
</svg>
